# 3ds Max Wavefront OBJ Exporter v0.99 - (c)2007 guruware
# File Created: 11.01.2023 06:33:48

mtllib pareddg.mtl

#
# object Box141
#

v  77.0680 -1.4504 -65.2230
v  77.0680 32.5112 -65.2230
v  90.5257 -1.4504 -65.2230
v  90.5257 32.5112 -65.2230
v  90.5257 32.5112 -64.7268
v  77.0680 32.5112 -64.7268
v  90.5257 -1.4504 -64.7268
v  77.0680 -1.4504 -64.7268
# 8 vertices

vn 0.0000 -0.0000 -1.0000
vn 0.0000 0.0000 1.0000
vn 0.0000 1.0000 -0.0000
vn 1.0000 0.0000 -0.0000
vn 0.0000 -1.0000 0.0000
vn -1.0000 0.0000 -0.0000
# 6 vertex normals

vt 0.0000 1.0000 0.0000
vt 0.0000 0.0000 0.0000
vt 1.0000 1.0000 0.0000
vt 1.0000 0.0000 0.0000
# 4 texture coords

o Box141
g Box141
usemtl 19___Default
s 2
f 1/1/1 2/2/1 3/3/1 
f 4/4/1 3/3/1 2/2/1 
s 4
f 5/2/2 6/4/2 7/1/2 
f 8/3/2 7/1/2 6/4/2 
s 8
f 4/4/3 2/2/3 5/3/3 
f 6/1/3 5/3/3 2/2/3 
s 16
f 3/4/4 4/2/4 7/3/4 
f 5/1/4 7/3/4 4/2/4 
s 32
f 1/4/5 3/2/5 8/3/5 
f 7/1/5 8/3/5 3/2/5 
s 64
f 2/4/6 1/2/6 6/3/6 
f 8/1/6 6/3/6 1/2/6 
# 12 faces

#
# object Box142
#

v  61.5649 -6.8288 -65.2230
v  61.5649 27.1328 -65.2230
v  75.0226 -6.8288 -65.2230
v  75.0226 27.1328 -65.2230
v  75.0226 27.1328 -64.7268
v  61.5649 27.1328 -64.7268
v  75.0226 -6.8288 -64.7268
v  61.5649 -6.8288 -64.7268
# 8 vertices

vn 0.0000 -0.0000 -1.0000
vn 0.0000 0.0000 1.0000
vn 0.0000 1.0000 -0.0000
vn 1.0000 0.0000 -0.0000
vn 0.0000 -1.0000 0.0000
vn -1.0000 0.0000 -0.0000
# 6 vertex normals

vt 0.0000 1.0000 0.0000
vt 0.0000 0.0000 0.0000
vt 1.0000 1.0000 0.0000
vt 1.0000 0.0000 0.0000
# 4 texture coords

o Box142
g Box142
usemtl 19___Default
s 2
f 9/5/7 10/6/7 11/7/7 
f 12/8/7 11/7/7 10/6/7 
s 4
f 13/6/8 14/8/8 15/5/8 
f 16/7/8 15/5/8 14/8/8 
s 8
f 12/8/9 10/6/9 13/7/9 
f 14/5/9 13/7/9 10/6/9 
s 16
f 11/8/10 12/6/10 15/7/10 
f 13/5/10 15/7/10 12/6/10 
s 32
f 9/8/11 11/6/11 16/7/11 
f 15/5/11 16/7/11 11/6/11 
s 64
f 10/8/12 9/6/12 14/7/12 
f 16/5/12 14/7/12 9/6/12 
# 12 faces

#
# object Box143
#

v  45.4017 -1.4504 -65.2230
v  45.4017 32.5112 -65.2230
v  58.8594 -1.4504 -65.2230
v  58.8594 32.5112 -65.2230
v  58.8594 32.5112 -64.7268
v  45.4017 32.5112 -64.7268
v  58.8594 -1.4504 -64.7268
v  45.4017 -1.4504 -64.7268
# 8 vertices

vn 0.0000 -0.0000 -1.0000
vn 0.0000 0.0000 1.0000
vn 0.0000 1.0000 -0.0000
vn 1.0000 0.0000 -0.0000
vn 0.0000 -1.0000 0.0000
vn -1.0000 0.0000 -0.0000
# 6 vertex normals

vt 0.0000 1.0000 0.0000
vt 0.0000 0.0000 0.0000
vt 1.0000 1.0000 0.0000
vt 1.0000 0.0000 0.0000
# 4 texture coords

o Box143
g Box143
usemtl 19___Default
s 2
f 17/9/13 18/10/13 19/11/13 
f 20/12/13 19/11/13 18/10/13 
s 4
f 21/10/14 22/12/14 23/9/14 
f 24/11/14 23/9/14 22/12/14 
s 8
f 20/12/15 18/10/15 21/11/15 
f 22/9/15 21/11/15 18/10/15 
s 16
f 19/12/16 20/10/16 23/11/16 
f 21/9/16 23/11/16 20/10/16 
s 32
f 17/12/17 19/10/17 24/11/17 
f 23/9/17 24/11/17 19/10/17 
s 64
f 18/12/18 17/10/18 22/11/18 
f 24/9/18 22/11/18 17/10/18 
# 12 faces

#
# object Box144
#

v  29.1369 -6.8288 -65.2230
v  29.1369 27.1328 -65.2230
v  42.5946 -6.8288 -65.2230
v  42.5946 27.1328 -65.2230
v  42.5946 27.1328 -64.7268
v  29.1369 27.1328 -64.7268
v  42.5946 -6.8288 -64.7268
v  29.1369 -6.8288 -64.7268
# 8 vertices

vn 0.0000 -0.0000 -1.0000
vn 0.0000 0.0000 1.0000
vn 0.0000 1.0000 -0.0000
vn 1.0000 0.0000 -0.0000
vn 0.0000 -1.0000 0.0000
vn -1.0000 0.0000 -0.0000
# 6 vertex normals

vt 0.0000 1.0000 0.0000
vt 0.0000 0.0000 0.0000
vt 1.0000 1.0000 0.0000
vt 1.0000 0.0000 0.0000
# 4 texture coords

o Box144
g Box144
usemtl 19___Default
s 2
f 25/13/19 26/14/19 27/15/19 
f 28/16/19 27/15/19 26/14/19 
s 4
f 29/14/20 30/16/20 31/13/20 
f 32/15/20 31/13/20 30/16/20 
s 8
f 28/16/21 26/14/21 29/15/21 
f 30/13/21 29/15/21 26/14/21 
s 16
f 27/16/22 28/14/22 31/15/22 
f 29/13/22 31/15/22 28/14/22 
s 32
f 25/16/23 27/14/23 32/15/23 
f 31/13/23 32/15/23 27/14/23 
s 64
f 26/16/24 25/14/24 30/15/24 
f 32/13/24 30/15/24 25/14/24 
# 12 faces

#
# object Box146
#

v  -3.8561 -6.8288 -65.2230
v  -3.8561 27.1328 -65.2230
v  9.6016 -6.8288 -65.2230
v  9.6016 27.1328 -65.2230
v  9.6016 27.1328 -64.7268
v  -3.8561 27.1328 -64.7268
v  9.6016 -6.8288 -64.7268
v  -3.8561 -6.8288 -64.7268
# 8 vertices

vn 0.0000 -0.0000 -1.0000
vn 0.0000 0.0000 1.0000
vn 0.0000 1.0000 -0.0000
vn 1.0000 0.0000 -0.0000
vn 0.0000 -1.0000 0.0000
vn -1.0000 0.0000 -0.0000
# 6 vertex normals

vt 0.0000 1.0000 0.0000
vt 0.0000 0.0000 0.0000
vt 1.0000 1.0000 0.0000
vt 1.0000 0.0000 0.0000
# 4 texture coords

o Box146
g Box146
usemtl 19___Default
s 2
f 33/17/25 34/18/25 35/19/25 
f 36/20/25 35/19/25 34/18/25 
s 4
f 37/18/26 38/20/26 39/17/26 
f 40/19/26 39/17/26 38/20/26 
s 8
f 36/20/27 34/18/27 37/19/27 
f 38/17/27 37/19/27 34/18/27 
s 16
f 35/20/28 36/18/28 39/19/28 
f 37/17/28 39/19/28 36/18/28 
s 32
f 33/20/29 35/18/29 40/19/29 
f 39/17/29 40/19/29 35/18/29 
s 64
f 34/20/30 33/18/30 38/19/30 
f 40/17/30 38/19/30 33/18/30 
# 12 faces

#
# object Box147
#

v  12.8564 -1.4504 -65.2230
v  12.8564 32.5112 -65.2230
v  26.3142 -1.4504 -65.2230
v  26.3142 32.5112 -65.2230
v  26.3142 32.5112 -64.7268
v  12.8564 32.5112 -64.7268
v  26.3142 -1.4504 -64.7268
v  12.8564 -1.4504 -64.7268
# 8 vertices

vn 0.0000 -0.0000 -1.0000
vn 0.0000 0.0000 1.0000
vn 0.0000 1.0000 -0.0000
vn 1.0000 0.0000 -0.0000
vn 0.0000 -1.0000 0.0000
vn -1.0000 0.0000 -0.0000
# 6 vertex normals

vt 0.0000 1.0000 0.0000
vt 0.0000 0.0000 0.0000
vt 1.0000 1.0000 0.0000
vt 1.0000 0.0000 0.0000
# 4 texture coords

o Box147
g Box147
usemtl 19___Default
s 2
f 41/21/31 42/22/31 43/23/31 
f 44/24/31 43/23/31 42/22/31 
s 4
f 45/22/32 46/24/32 47/21/32 
f 48/23/32 47/21/32 46/24/32 
s 8
f 44/24/33 42/22/33 45/23/33 
f 46/21/33 45/23/33 42/22/33 
s 16
f 43/24/34 44/22/34 47/23/34 
f 45/21/34 47/23/34 44/22/34 
s 32
f 41/24/35 43/22/35 48/23/35 
f 47/21/35 48/23/35 43/22/35 
s 64
f 42/24/36 41/22/36 46/23/36 
f 48/21/36 46/23/36 41/22/36 
# 12 faces

#
# object Box148
#

v  -20.0547 -1.4504 -65.2230
v  -20.0547 32.5112 -65.2230
v  -6.5969 -1.4504 -65.2230
v  -6.5969 32.5112 -65.2230
v  -6.5969 32.5112 -64.7268
v  -20.0547 32.5112 -64.7268
v  -6.5969 -1.4504 -64.7268
v  -20.0547 -1.4504 -64.7268
# 8 vertices

vn 0.0000 -0.0000 -1.0000
vn 0.0000 0.0000 1.0000
vn 0.0000 1.0000 -0.0000
vn 1.0000 0.0000 -0.0000
vn 0.0000 -1.0000 0.0000
vn -1.0000 0.0000 -0.0000
# 6 vertex normals

vt 0.0000 1.0000 0.0000
vt 0.0000 0.0000 0.0000
vt 1.0000 1.0000 0.0000
vt 1.0000 0.0000 0.0000
# 4 texture coords

o Box148
g Box148
usemtl 19___Default
s 2
f 49/25/37 50/26/37 51/27/37 
f 52/28/37 51/27/37 50/26/37 
s 4
f 53/26/38 54/28/38 55/25/38 
f 56/27/38 55/25/38 54/28/38 
s 8
f 52/28/39 50/26/39 53/27/39 
f 54/25/39 53/27/39 50/26/39 
s 16
f 51/28/40 52/26/40 55/27/40 
f 53/25/40 55/27/40 52/26/40 
s 32
f 49/28/41 51/26/41 56/27/41 
f 55/25/41 56/27/41 51/26/41 
s 64
f 50/28/42 49/26/42 54/27/42 
f 56/25/42 54/27/42 49/26/42 
# 12 faces

#
# object Box149
#

v  -37.5940 -6.8288 -65.2230
v  -37.5940 27.1328 -65.2230
v  -24.1362 -6.8288 -65.2230
v  -24.1362 27.1328 -65.2230
v  -24.1362 27.1328 -64.7268
v  -37.5940 27.1328 -64.7268
v  -24.1362 -6.8288 -64.7268
v  -37.5940 -6.8288 -64.7268
# 8 vertices

vn 0.0000 -0.0000 -1.0000
vn 0.0000 0.0000 1.0000
vn 0.0000 1.0000 -0.0000
vn 1.0000 0.0000 -0.0000
vn 0.0000 -1.0000 0.0000
vn -1.0000 0.0000 -0.0000
# 6 vertex normals

vt 0.0000 1.0000 0.0000
vt 0.0000 0.0000 0.0000
vt 1.0000 1.0000 0.0000
vt 1.0000 0.0000 0.0000
# 4 texture coords

o Box149
g Box149
usemtl 19___Default
s 2
f 57/29/43 58/30/43 59/31/43 
f 60/32/43 59/31/43 58/30/43 
s 4
f 61/30/44 62/32/44 63/29/44 
f 64/31/44 63/29/44 62/32/44 
s 8
f 60/32/45 58/30/45 61/31/45 
f 62/29/45 61/31/45 58/30/45 
s 16
f 59/32/46 60/30/46 63/31/46 
f 61/29/46 63/31/46 60/30/46 
s 32
f 57/32/47 59/30/47 64/31/47 
f 63/29/47 64/31/47 59/30/47 
s 64
f 58/32/48 57/30/48 62/31/48 
f 64/29/48 62/31/48 57/30/48 
# 12 faces

#
# object Box150
#

v  -54.1747 -1.4504 -65.2230
v  -54.1747 32.5112 -65.2230
v  -40.7170 -1.4504 -65.2230
v  -40.7170 32.5112 -65.2230
v  -40.7170 32.5112 -64.7268
v  -54.1747 32.5112 -64.7268
v  -40.7170 -1.4504 -64.7268
v  -54.1747 -1.4504 -64.7268
# 8 vertices

vn 0.0000 -0.0000 -1.0000
vn 0.0000 0.0000 1.0000
vn 0.0000 1.0000 -0.0000
vn 1.0000 0.0000 -0.0000
vn 0.0000 -1.0000 0.0000
vn -1.0000 0.0000 -0.0000
# 6 vertex normals

vt 0.0000 1.0000 0.0000
vt 0.0000 0.0000 0.0000
vt 1.0000 1.0000 0.0000
vt 1.0000 0.0000 0.0000
# 4 texture coords

o Box150
g Box150
usemtl 19___Default
s 2
f 65/33/49 66/34/49 67/35/49 
f 68/36/49 67/35/49 66/34/49 
s 4
f 69/34/50 70/36/50 71/33/50 
f 72/35/50 71/33/50 70/36/50 
s 8
f 68/36/51 66/34/51 69/35/51 
f 70/33/51 69/35/51 66/34/51 
s 16
f 67/36/52 68/34/52 71/35/52 
f 69/33/52 71/35/52 68/34/52 
s 32
f 65/36/53 67/34/53 72/35/53 
f 71/33/53 72/35/53 67/34/53 
s 64
f 66/36/54 65/34/54 70/35/54 
f 72/33/54 70/35/54 65/34/54 
# 12 faces

#
# object Box151
#

v  -70.1081 -6.8288 -65.2230
v  -70.1081 27.1328 -65.2230
v  -56.6503 -6.8288 -65.2230
v  -56.6503 27.1328 -65.2230
v  -56.6503 27.1328 -64.7268
v  -70.1081 27.1328 -64.7268
v  -56.6503 -6.8288 -64.7268
v  -70.1081 -6.8288 -64.7268
# 8 vertices

vn 0.0000 -0.0000 -1.0000
vn 0.0000 0.0000 1.0000
vn 0.0000 1.0000 -0.0000
vn 1.0000 0.0000 -0.0000
vn 0.0000 -1.0000 0.0000
vn -1.0000 0.0000 -0.0000
# 6 vertex normals

vt 0.0000 1.0000 0.0000
vt 0.0000 0.0000 0.0000
vt 1.0000 1.0000 0.0000
vt 1.0000 0.0000 0.0000
# 4 texture coords

o Box151
g Box151
usemtl 19___Default
s 2
f 73/37/55 74/38/55 75/39/55 
f 76/40/55 75/39/55 74/38/55 
s 4
f 77/38/56 78/40/56 79/37/56 
f 80/39/56 79/37/56 78/40/56 
s 8
f 76/40/57 74/38/57 77/39/57 
f 78/37/57 77/39/57 74/38/57 
s 16
f 75/40/58 76/38/58 79/39/58 
f 77/37/58 79/39/58 76/38/58 
s 32
f 73/40/59 75/38/59 80/39/59 
f 79/37/59 80/39/59 75/38/59 
s 64
f 74/40/60 73/38/60 78/39/60 
f 80/37/60 78/39/60 73/38/60 
# 12 faces

#
# object Box152
#

v  -86.7625 -1.4504 -65.2230
v  -86.7625 32.5112 -65.2230
v  -73.3048 -1.4504 -65.2230
v  -73.3048 32.5112 -65.2230
v  -73.3048 32.5112 -64.7268
v  -86.7625 32.5112 -64.7268
v  -73.3048 -1.4504 -64.7268
v  -86.7625 -1.4504 -64.7268
# 8 vertices

vn 0.0000 -0.0000 -1.0000
vn 0.0000 0.0000 1.0000
vn 0.0000 1.0000 -0.0000
vn 1.0000 0.0000 -0.0000
vn 0.0000 -1.0000 0.0000
vn -1.0000 0.0000 -0.0000
# 6 vertex normals

vt 0.0000 1.0000 0.0000
vt 0.0000 0.0000 0.0000
vt 1.0000 1.0000 0.0000
vt 1.0000 0.0000 0.0000
# 4 texture coords

o Box152
g Box152
usemtl 19___Default
s 2
f 81/41/61 82/42/61 83/43/61 
f 84/44/61 83/43/61 82/42/61 
s 4
f 85/42/62 86/44/62 87/41/62 
f 88/43/62 87/41/62 86/44/62 
s 8
f 84/44/63 82/42/63 85/43/63 
f 86/41/63 85/43/63 82/42/63 
s 16
f 83/44/64 84/42/64 87/43/64 
f 85/41/64 87/43/64 84/42/64 
s 32
f 81/44/65 83/42/65 88/43/65 
f 87/41/65 88/43/65 83/42/65 
s 64
f 82/44/66 81/42/66 86/43/66 
f 88/41/66 86/43/66 81/42/66 
# 12 faces

#
# object Box153
#

v  -102.8649 -6.8288 -65.2230
v  -102.8649 27.1328 -65.2230
v  -89.4071 -6.8288 -65.2230
v  -89.4071 27.1328 -65.2230
v  -89.4071 27.1328 -64.7268
v  -102.8649 27.1328 -64.7268
v  -89.4071 -6.8288 -64.7268
v  -102.8649 -6.8288 -64.7268
# 8 vertices

vn 0.0000 -0.0000 -1.0000
vn 0.0000 0.0000 1.0000
vn 0.0000 1.0000 -0.0000
vn 1.0000 0.0000 -0.0000
vn 0.0000 -1.0000 0.0000
vn -1.0000 0.0000 -0.0000
# 6 vertex normals

vt 0.0000 1.0000 0.0000
vt 0.0000 0.0000 0.0000
vt 1.0000 1.0000 0.0000
vt 1.0000 0.0000 0.0000
# 4 texture coords

o Box153
g Box153
usemtl 19___Default
s 2
f 89/45/67 90/46/67 91/47/67 
f 92/48/67 91/47/67 90/46/67 
s 4
f 93/46/68 94/48/68 95/45/68 
f 96/47/68 95/45/68 94/48/68 
s 8
f 92/48/69 90/46/69 93/47/69 
f 94/45/69 93/47/69 90/46/69 
s 16
f 91/48/70 92/46/70 95/47/70 
f 93/45/70 95/47/70 92/46/70 
s 32
f 89/48/71 91/46/71 96/47/71 
f 95/45/71 96/47/71 91/46/71 
s 64
f 90/48/72 89/46/72 94/47/72 
f 96/45/72 94/47/72 89/46/72 
# 12 faces

