# 3ds Max Wavefront OBJ Exporter v0.99 - (c)2007 guruware
# File Created: 04.12.2022 08:18:06

mtllib trompo.mtl

#
# object Cone002
#

v  27.6468 11.1216 -32.1686
v  29.3036 11.1216 -33.1237
v  29.4947 11.1216 -32.6630
v  29.5599 11.1216 -32.1686
v  28.6034 11.1216 -33.8228
v  28.9996 11.1216 -33.5192
v  27.6468 11.1216 -34.0787
v  28.1420 11.1216 -34.0136
v  26.6903 11.1216 -33.8228
v  27.1517 11.1216 -34.0136
v  25.9900 11.1216 -33.1237
v  26.2941 11.1216 -33.5192
v  25.7337 11.1216 -32.1686
v  25.7989 11.1216 -32.6630
v  25.9900 11.1216 -31.2136
v  25.7989 11.1216 -31.6743
v  26.6903 11.1216 -30.5145
v  26.2941 11.1216 -30.8180
v  27.6468 11.1216 -30.2586
v  27.1517 11.1216 -30.3237
v  28.6034 11.1216 -30.5145
v  28.1420 11.1216 -30.3237
v  29.3036 11.1216 -31.2136
v  28.9996 11.1216 -30.8180
v  29.4947 11.1216 -31.6743
v  30.0902 14.4906 -32.8223
v  30.1764 14.4906 -32.1686
v  29.8375 14.4906 -33.4314
v  29.4355 14.4906 -33.9545
v  28.9116 14.4906 -34.3559
v  28.3015 14.4906 -34.6082
v  27.6468 14.4906 -34.6942
v  26.9921 14.4906 -34.6082
v  26.3820 14.4906 -34.3559
v  25.8581 14.4906 -33.9545
v  25.4561 14.4906 -33.4314
v  25.2034 14.4906 -32.8223
v  25.1172 14.4906 -32.1686
v  25.2034 14.4906 -31.5150
v  25.4561 14.4906 -30.9058
v  25.8581 14.4906 -30.3828
v  26.3820 14.4906 -29.9814
v  26.9921 14.4906 -29.7291
v  27.6468 14.4906 -29.6430
v  28.3015 14.4906 -29.7291
v  28.9116 14.4906 -29.9814
v  29.4355 14.4906 -30.3828
v  29.8375 14.4906 -30.9058
v  30.0902 14.4906 -31.5150
v  30.6858 17.8596 -32.9816
v  30.7930 17.8596 -32.1686
v  30.3715 17.8596 -33.7392
v  29.8715 17.8596 -34.3898
v  29.2199 17.8596 -34.8890
v  28.4611 17.8596 -35.2028
v  27.6468 17.8596 -35.3098
v  26.8325 17.8596 -35.2028
v  26.0737 17.8596 -34.8890
v  25.4221 17.8596 -34.3898
v  24.9222 17.8596 -33.7392
v  24.6079 17.8596 -32.9816
v  24.5007 17.8596 -32.1686
v  24.6079 17.8596 -31.3557
v  24.9222 17.8596 -30.5981
v  25.4221 17.8596 -29.9475
v  26.0737 17.8596 -29.4483
v  26.8325 17.8596 -29.1345
v  27.6468 17.8596 -29.0275
v  28.4611 17.8596 -29.1345
v  29.2199 17.8596 -29.4483
v  29.8715 17.8596 -29.9475
v  30.3715 17.8596 -30.5981
v  30.6858 17.8596 -31.3556
v  31.2813 21.2287 -33.1409
v  31.4095 21.2287 -32.1686
v  30.9054 21.2287 -34.0470
v  30.3074 21.2287 -34.8250
v  29.5282 21.2287 -35.4220
v  28.6207 21.2287 -35.7973
v  27.6468 21.2287 -35.9253
v  26.6730 21.2287 -35.7973
v  25.7655 21.2287 -35.4220
v  24.9862 21.2287 -34.8250
v  24.3882 21.2287 -34.0470
v  24.0123 21.2287 -33.1409
v  23.8841 21.2287 -32.1686
v  24.0123 21.2287 -31.1963
v  24.3882 21.2287 -30.2903
v  24.9862 21.2287 -29.5123
v  25.7655 21.2287 -28.9152
v  26.6730 21.2287 -28.5399
v  27.6468 21.2287 -28.4119
v  28.6207 21.2287 -28.5399
v  29.5282 21.2287 -28.9152
v  30.3074 21.2287 -29.5123
v  30.9054 21.2287 -30.2903
v  31.2813 21.2287 -31.1963
v  31.8768 24.5977 -33.3003
v  32.0260 24.5977 -32.1686
v  31.4393 24.5977 -34.3548
v  30.7434 24.5977 -35.2603
v  29.8364 24.5977 -35.9551
v  28.7802 24.5977 -36.3919
v  27.6468 24.5977 -36.5409
v  26.5134 24.5977 -36.3919
v  25.4572 24.5977 -35.9551
v  24.5502 24.5977 -35.2603
v  23.8543 24.5977 -34.3548
v  23.4168 24.5977 -33.3003
v  23.2676 24.5977 -32.1686
v  23.4168 24.5977 -31.0370
v  23.8543 24.5977 -29.9825
v  24.5502 24.5977 -29.0770
v  25.4572 24.5977 -28.3822
v  26.5134 24.5977 -27.9454
v  27.6468 24.5977 -27.7964
v  28.7802 24.5977 -27.9454
v  29.8364 24.5977 -28.3822
v  30.7434 24.5977 -29.0770
v  31.4393 24.5977 -29.9825
v  31.8768 24.5977 -31.0370
v  32.4723 27.9667 -33.4596
v  32.6426 27.9667 -32.1686
v  31.9733 27.9667 -34.6625
v  31.1793 27.9667 -35.6955
v  30.1447 27.9667 -36.4882
v  28.9398 27.9667 -36.9865
v  27.6468 27.9667 -37.1564
v  26.3538 27.9667 -36.9865
v  25.1489 27.9667 -36.4882
v  24.1143 27.9667 -35.6955
v  23.3204 27.9667 -34.6625
v  22.8213 27.9667 -33.4596
v  22.6511 27.9667 -32.1686
v  22.8213 27.9667 -30.8777
v  23.3204 27.9667 -29.6747
v  24.1143 27.9667 -28.6417
v  25.1489 27.9667 -27.8491
v  26.3538 27.9667 -27.3508
v  27.6468 27.9667 -27.1808
v  28.9398 27.9667 -27.3508
v  30.1447 27.9667 -27.8491
v  31.1793 27.9667 -28.6417
v  31.9733 27.9667 -29.6747
v  32.4723 27.9667 -30.8777
v  27.6468 27.9667 -32.1686
# 146 vertices

vn 0.0000 -1.0000 -0.0000
vn 0.5224 -0.7975 -0.3016
vn 0.5827 -0.7975 -0.1561
vn 0.6033 -0.7975 0.0000
vn 0.3016 -0.7975 -0.5224
vn 0.4266 -0.7975 -0.4266
vn 0.0000 -0.7975 -0.6033
vn 0.1561 -0.7975 -0.5827
vn -0.3016 -0.7975 -0.5224
vn -0.1561 -0.7975 -0.5827
vn -0.5224 -0.7975 -0.3016
vn -0.4266 -0.7975 -0.4266
vn -0.6033 -0.7975 -0.0000
vn -0.5827 -0.7975 -0.1561
vn -0.5224 -0.7975 0.3016
vn -0.5827 -0.7975 0.1561
vn -0.3016 -0.7975 0.5224
vn -0.4266 -0.7975 0.4266
vn -0.0000 -0.7975 0.6033
vn -0.1561 -0.7975 0.5827
vn 0.3016 -0.7975 0.5224
vn 0.1561 -0.7975 0.5827
vn 0.5224 -0.7975 0.3016
vn 0.4266 -0.7975 0.4266
vn 0.5827 -0.7975 0.1561
vn 0.9071 -0.3436 -0.2431
vn 0.9391 -0.3436 0.0000
vn 0.8133 -0.3436 -0.4696
vn 0.6641 -0.3436 -0.6641
vn 0.4696 -0.3436 -0.8133
vn 0.2431 -0.3436 -0.9071
vn 0.0000 -0.3436 -0.9391
vn -0.2431 -0.3436 -0.9071
vn -0.4696 -0.3436 -0.8133
vn -0.6641 -0.3436 -0.6641
vn -0.8133 -0.3436 -0.4696
vn -0.9071 -0.3436 -0.2431
vn -0.9391 -0.3436 -0.0000
vn -0.9071 -0.3436 0.2431
vn -0.8133 -0.3436 0.4696
vn -0.6641 -0.3436 0.6641
vn -0.4696 -0.3436 0.8133
vn -0.2431 -0.3436 0.9071
vn -0.0000 -0.3436 0.9391
vn 0.2431 -0.3436 0.9071
vn 0.4696 -0.3436 0.8133
vn 0.6641 -0.3436 0.6641
vn 0.8133 -0.3436 0.4696
vn 0.9071 -0.3436 0.2431
vn 0.8111 0.5430 -0.2173
vn 0.8398 0.5430 0.0000
vn 0.7272 0.5430 -0.4199
vn 0.5938 0.5430 -0.5938
vn 0.4199 0.5430 -0.7272
vn 0.2173 0.5430 -0.8111
vn 0.0000 0.5430 -0.8398
vn -0.2173 0.5430 -0.8111
vn -0.4199 0.5430 -0.7272
vn -0.5938 0.5430 -0.5938
vn -0.7272 0.5430 -0.4199
vn -0.8111 0.5430 -0.2173
vn -0.8398 0.5430 -0.0000
vn -0.8111 0.5430 0.2173
vn -0.7272 0.5430 0.4199
vn -0.5938 0.5430 0.5938
vn -0.4199 0.5430 0.7272
vn -0.2173 0.5430 0.8111
vn -0.0000 0.5430 0.8398
vn 0.2173 0.5430 0.8111
vn 0.4199 0.5430 0.7272
vn 0.5938 0.5430 0.5938
vn 0.7272 0.5430 0.4199
vn 0.8111 0.5430 0.2173
vn 0.0000 1.0000 0.0000
# 74 vertex normals

vt 0.5000 0.0000 0.0000
vt 0.6667 0.0000 0.3829
vt 0.7083 0.0000 0.3829
vt 0.7500 0.0000 0.3829
vt 0.5833 0.0000 0.3829
vt 0.6250 0.0000 0.3829
vt 0.5000 0.0000 0.3829
vt 0.5417 0.0000 0.3829
vt 0.4167 0.0000 0.3829
vt 0.4583 0.0000 0.3829
vt 0.3333 0.0000 0.3829
vt 0.3750 0.0000 0.3829
vt 0.2500 0.0000 0.3829
vt 0.2917 0.0000 0.3829
vt 0.1667 0.0000 0.3829
vt 0.2083 0.0000 0.3829
vt 0.0833 0.0000 0.3829
vt 0.1250 0.0000 0.3829
vt 0.0000 0.0000 0.3829
vt 0.0417 0.0000 0.3829
vt -0.0464 0.0000 0.3568
vt -0.0417 0.0000 0.3829
vt 0.8333 0.0000 0.3829
vt 0.8750 0.0000 0.3829
vt 0.9167 0.0000 0.3829
vt 0.7917 0.0000 0.3829
vt 0.7083 0.2000 0.5064
vt 0.7500 0.2000 0.5064
vt 0.6667 0.2000 0.5064
vt 0.6250 0.2000 0.5064
vt 0.5833 0.2000 0.5064
vt 0.5417 0.2000 0.5064
vt 0.5000 0.2000 0.5064
vt 0.4583 0.2000 0.5064
vt 0.4167 0.2000 0.5064
vt 0.3750 0.2000 0.5064
vt 0.3333 0.2000 0.5064
vt 0.2917 0.2000 0.5064
vt 0.2500 0.2000 0.5064
vt 0.2083 0.2000 0.5064
vt 0.1667 0.2000 0.5064
vt 0.1250 0.2000 0.5064
vt 0.0833 0.2000 0.5064
vt 0.0417 0.2000 0.5064
vt 0.0000 0.2000 0.5064
vt -0.0417 0.2000 0.5064
vt 0.9583 0.0000 0.3829
vt 0.9167 0.2000 0.5064
vt 0.9583 0.2000 0.5064
vt 0.8750 0.2000 0.5064
vt 0.8333 0.2000 0.5064
vt 0.7917 0.2000 0.5064
vt 0.7083 0.4000 0.6298
vt 0.7500 0.4000 0.6298
vt 0.6667 0.4000 0.6298
vt 0.6250 0.4000 0.6298
vt 0.5833 0.4000 0.6298
vt 0.5417 0.4000 0.6298
vt 0.5000 0.4000 0.6298
vt 0.4583 0.4000 0.6298
vt 0.4167 0.4000 0.6298
vt 0.3750 0.4000 0.6298
vt 0.3333 0.4000 0.6298
vt 0.2917 0.4000 0.6298
vt 0.2500 0.4000 0.6298
vt 0.2083 0.4000 0.6298
vt 0.1667 0.4000 0.6298
vt 0.1250 0.4000 0.6298
vt 0.0833 0.4000 0.6298
vt 0.0417 0.4000 0.6298
vt 0.0000 0.4000 0.6298
vt -0.0417 0.4000 0.6298
vt 0.9167 0.4000 0.6298
vt 0.9583 0.4000 0.6298
vt 0.8750 0.4000 0.6298
vt 0.8333 0.4000 0.6298
vt 0.7917 0.4000 0.6298
vt 0.7083 0.6000 0.7532
vt 0.7500 0.6000 0.7532
vt 0.6667 0.6000 0.7532
vt 0.6250 0.6000 0.7532
vt 0.5833 0.6000 0.7532
vt 0.5417 0.6000 0.7532
vt 0.5000 0.6000 0.7532
vt 0.4583 0.6000 0.7532
vt 0.4167 0.6000 0.7532
vt 0.3750 0.6000 0.7532
vt 0.3333 0.6000 0.7532
vt 0.2917 0.6000 0.7532
vt 0.2500 0.6000 0.7532
vt 0.2083 0.6000 0.7532
vt 0.1667 0.6000 0.7532
vt 0.1250 0.6000 0.7532
vt 0.0833 0.6000 0.7532
vt 0.0417 0.6000 0.7532
vt 0.0000 0.6000 0.7532
vt -0.0417 0.6000 0.7532
vt 0.9167 0.6000 0.7532
vt 0.9583 0.6000 0.7532
vt 0.8750 0.6000 0.7532
vt 0.8333 0.6000 0.7532
vt 0.7917 0.6000 0.7532
vt 0.7083 0.8000 0.8766
vt 0.7500 0.8000 0.8766
vt 0.6667 0.8000 0.8766
vt 0.6250 0.8000 0.8766
vt 0.5833 0.8000 0.8766
vt 0.5417 0.8000 0.8766
vt 0.5000 0.8000 0.8766
vt 0.4583 0.8000 0.8766
vt 0.4167 0.8000 0.8766
vt 0.3750 0.8000 0.8766
vt 0.3333 0.8000 0.8766
vt 0.2917 0.8000 0.8766
vt 0.2500 0.8000 0.8766
vt 0.2083 0.8000 0.8766
vt 0.1667 0.8000 0.8766
vt 0.1250 0.8000 0.8766
vt 0.0833 0.8000 0.8766
vt 0.0417 0.8000 0.8766
vt 0.0000 0.8000 0.8766
vt -0.0417 0.8000 0.8766
vt 0.9167 0.8000 0.8766
vt 0.9583 0.8000 0.8766
vt 0.8750 0.8000 0.8766
vt 0.8333 0.8000 0.8766
vt 0.7917 0.8000 0.8766
vt 0.7083 1.0000 1.0000
vt 0.7500 1.0000 1.0000
vt 0.6667 1.0000 1.0000
vt 0.6250 1.0000 1.0000
vt 0.5833 1.0000 1.0000
vt 0.5417 1.0000 1.0000
vt 0.5000 1.0000 1.0000
vt 0.4583 1.0000 1.0000
vt 0.4167 1.0000 1.0000
vt 0.3750 1.0000 1.0000
vt 0.3333 1.0000 1.0000
vt 0.2917 1.0000 1.0000
vt 0.2500 1.0000 1.0000
vt 0.2083 1.0000 1.0000
vt 0.1667 1.0000 1.0000
vt 0.1250 1.0000 1.0000
vt 0.0833 1.0000 1.0000
vt 0.0417 1.0000 1.0000
vt 0.0000 1.0000 1.0000
vt -0.0417 1.0000 1.0000
vt 0.9167 1.0000 1.0000
vt 0.9583 1.0000 1.0000
vt 0.8750 1.0000 1.0000
vt 0.8333 1.0000 1.0000
vt 0.7917 1.0000 1.0000
vt 0.5000 1.0000 0.0000
# 153 texture coords

o Cone002
g Cone002
usemtl 20___Default
s 1
f 1/1/1 2/2/2 3/3/3 4/4/4 
f 1/1/1 5/5/5 6/6/6 2/2/2 
f 1/1/1 7/7/7 8/8/8 5/5/5 
f 1/1/1 9/9/9 10/10/10 7/7/7 
f 1/1/1 11/11/11 12/12/12 9/9/9 
f 1/1/1 13/13/13 14/14/14 11/11/11 
f 1/1/1 15/15/15 16/16/16 13/13/13 
f 1/1/1 17/17/17 18/18/18 15/15/15 
f 1/1/1 19/19/19 20/20/20 17/17/17 
f 1/1/1 21/21/21 22/22/22 19/19/19 
f 1/1/1 23/23/23 24/24/24 21/25/21 
f 1/1/1 4/4/4 25/26/25 23/23/23 
s 8
f 4/4/4 3/3/3 26/27/26 27/28/27 
f 3/3/3 2/2/2 28/29/28 26/27/26 
f 2/2/2 6/6/6 29/30/29 28/29/28 
f 6/6/6 5/5/5 30/31/30 29/30/29 
f 5/5/5 8/8/8 31/32/31 30/31/30 
f 8/8/8 7/7/7 32/33/32 31/32/31 
f 7/7/7 10/10/10 33/34/33 32/33/32 
f 10/10/10 9/9/9 34/35/34 33/34/33 
f 9/9/9 12/12/12 35/36/35 34/35/34 
f 12/12/12 11/11/11 36/37/36 35/36/35 
f 11/11/11 14/14/14 37/38/37 36/37/36 
f 14/14/14 13/13/13 38/39/38 37/38/37 
f 13/13/13 16/16/16 39/40/39 38/39/38 
f 16/16/16 15/15/15 40/41/40 39/40/39 
f 15/15/15 18/18/18 41/42/41 40/41/40 
f 18/18/18 17/17/17 42/43/42 41/42/41 
f 17/17/17 20/20/20 43/44/43 42/43/42 
f 20/20/20 19/19/19 44/45/44 43/44/43 
f 19/19/19 22/22/22 45/46/45 44/45/44 
f 22/47/22 21/25/21 46/48/46 45/49/45 
f 21/25/21 24/24/24 47/50/47 46/48/46 
f 24/24/24 23/23/23 48/51/48 47/50/47 
f 23/23/23 25/26/25 49/52/49 48/51/48 
f 25/26/25 4/4/4 27/28/27 49/52/49 
f 27/28/27 26/27/26 50/53/26 51/54/27 
f 26/27/26 28/29/28 52/55/28 50/53/26 
f 28/29/28 29/30/29 53/56/29 52/55/28 
f 29/30/29 30/31/30 54/57/30 53/56/29 
f 30/31/30 31/32/31 55/58/31 54/57/30 
f 31/32/31 32/33/32 56/59/32 55/58/31 
f 32/33/32 33/34/33 57/60/33 56/59/32 
f 33/34/33 34/35/34 58/61/34 57/60/33 
f 34/35/34 35/36/35 59/62/35 58/61/34 
f 35/36/35 36/37/36 60/63/36 59/62/35 
f 36/37/36 37/38/37 61/64/37 60/63/36 
f 37/38/37 38/39/38 62/65/38 61/64/37 
f 38/39/38 39/40/39 63/66/39 62/65/38 
f 39/40/39 40/41/40 64/67/40 63/66/39 
f 40/41/40 41/42/41 65/68/41 64/67/40 
f 41/42/41 42/43/42 66/69/42 65/68/41 
f 42/43/42 43/44/43 67/70/43 66/69/42 
f 43/44/43 44/45/44 68/71/44 67/70/43 
f 44/45/44 45/46/45 69/72/45 68/71/44 
f 45/49/45 46/48/46 70/73/46 69/74/45 
f 46/48/46 47/50/47 71/75/47 70/73/46 
f 47/50/47 48/51/48 72/76/48 71/75/47 
f 48/51/48 49/52/49 73/77/49 72/76/48 
f 49/52/49 27/28/27 51/54/27 73/77/49 
f 51/54/27 50/53/26 74/78/26 75/79/27 
f 50/53/26 52/55/28 76/80/28 74/78/26 
f 52/55/28 53/56/29 77/81/29 76/80/28 
f 53/56/29 54/57/30 78/82/30 77/81/29 
f 54/57/30 55/58/31 79/83/31 78/82/30 
f 55/58/31 56/59/32 80/84/32 79/83/31 
f 56/59/32 57/60/33 81/85/33 80/84/32 
f 57/60/33 58/61/34 82/86/34 81/85/33 
f 58/61/34 59/62/35 83/87/35 82/86/34 
f 59/62/35 60/63/36 84/88/36 83/87/35 
f 60/63/36 61/64/37 85/89/37 84/88/36 
f 61/64/37 62/65/38 86/90/38 85/89/37 
f 62/65/38 63/66/39 87/91/39 86/90/38 
f 63/66/39 64/67/40 88/92/40 87/91/39 
f 64/67/40 65/68/41 89/93/41 88/92/40 
f 65/68/41 66/69/42 90/94/42 89/93/41 
f 66/69/42 67/70/43 91/95/43 90/94/42 
f 67/70/43 68/71/44 92/96/44 91/95/43 
f 68/71/44 69/72/45 93/97/45 92/96/44 
f 69/74/45 70/73/46 94/98/46 93/99/45 
f 70/73/46 71/75/47 95/100/47 94/98/46 
f 71/75/47 72/76/48 96/101/48 95/100/47 
f 72/76/48 73/77/49 97/102/49 96/101/48 
f 73/77/49 51/54/27 75/79/27 97/102/49 
f 75/79/27 74/78/26 98/103/26 99/104/27 
f 74/78/26 76/80/28 100/105/28 98/103/26 
f 76/80/28 77/81/29 101/106/29 100/105/28 
f 77/81/29 78/82/30 102/107/30 101/106/29 
f 78/82/30 79/83/31 103/108/31 102/107/30 
f 79/83/31 80/84/32 104/109/32 103/108/31 
f 80/84/32 81/85/33 105/110/33 104/109/32 
f 81/85/33 82/86/34 106/111/34 105/110/33 
f 82/86/34 83/87/35 107/112/35 106/111/34 
f 83/87/35 84/88/36 108/113/36 107/112/35 
f 84/88/36 85/89/37 109/114/37 108/113/36 
f 85/89/37 86/90/38 110/115/38 109/114/37 
f 86/90/38 87/91/39 111/116/39 110/115/38 
f 87/91/39 88/92/40 112/117/40 111/116/39 
f 88/92/40 89/93/41 113/118/41 112/117/40 
f 89/93/41 90/94/42 114/119/42 113/118/41 
f 90/94/42 91/95/43 115/120/43 114/119/42 
f 91/95/43 92/96/44 116/121/44 115/120/43 
f 92/96/44 93/97/45 117/122/45 116/121/44 
f 93/99/45 94/98/46 118/123/46 117/124/45 
f 94/98/46 95/100/47 119/125/47 118/123/46 
f 95/100/47 96/101/48 120/126/48 119/125/47 
f 96/101/48 97/102/49 121/127/49 120/126/48 
f 97/102/49 75/79/27 99/104/27 121/127/49 
f 99/104/27 98/103/26 122/128/50 123/129/51 
f 98/103/26 100/105/28 124/130/52 122/128/50 
f 100/105/28 101/106/29 125/131/53 124/130/52 
f 101/106/29 102/107/30 126/132/54 125/131/53 
f 102/107/30 103/108/31 127/133/55 126/132/54 
f 103/108/31 104/109/32 128/134/56 127/133/55 
f 104/109/32 105/110/33 129/135/57 128/134/56 
f 105/110/33 106/111/34 130/136/58 129/135/57 
f 106/111/34 107/112/35 131/137/59 130/136/58 
f 107/112/35 108/113/36 132/138/60 131/137/59 
f 108/113/36 109/114/37 133/139/61 132/138/60 
f 109/114/37 110/115/38 134/140/62 133/139/61 
f 110/115/38 111/116/39 135/141/63 134/140/62 
f 111/116/39 112/117/40 136/142/64 135/141/63 
f 112/117/40 113/118/41 137/143/65 136/142/64 
f 113/118/41 114/119/42 138/144/66 137/143/65 
f 114/119/42 115/120/43 139/145/67 138/144/66 
f 115/120/43 116/121/44 140/146/68 139/145/67 
f 116/121/44 117/122/45 141/147/69 140/146/68 
f 117/124/45 118/123/46 142/148/70 141/149/69 
f 118/123/46 119/125/47 143/150/71 142/148/70 
f 119/125/47 120/126/48 144/151/72 143/150/71 
f 120/126/48 121/127/49 145/152/73 144/151/72 
f 121/127/49 99/104/27 123/129/51 145/152/73 
s 1
f 146/153/74 145/152/73 123/129/51 122/128/50 
f 146/153/74 122/128/50 124/130/52 125/131/53 
f 146/153/74 125/131/53 126/132/54 127/133/55 
f 146/153/74 127/133/55 128/134/56 129/135/57 
f 146/153/74 129/135/57 130/136/58 131/137/59 
f 146/153/74 131/137/59 132/138/60 133/139/61 
f 146/153/74 133/139/61 134/140/62 135/141/63 
f 146/153/74 135/141/63 136/142/64 137/143/65 
f 146/153/74 137/143/65 138/144/66 139/145/67 
f 146/153/74 139/145/67 140/146/68 141/147/69 
f 146/153/74 141/149/69 142/148/70 143/150/71 
f 146/153/74 143/150/71 144/151/72 145/152/73 
# 144 polygons

